<svg width="390" height="174" viewBox="0 0 390 174" fill="none" xmlns="http://www.w3.org/2000/svg">
<g clip-path="url(#clip0_77_780)">
<path d="M390 0H-5V180H390V0Z" fill="#C7232F"/>
<path d="M-5 230.636C25.7999 228.562 35.2465 173.29 60.8252 151.376C85.5411 130.201 128.628 140.393 140.746 105.772C152.897 71.0566 120.63 36.4408 114.024 -0.616653C108.146 -33.5802 121.697 -73.7233 104.205 -99.1751C86.7109 -124.632 53.0701 -111.27 28.6975 -124.778C-0.878845 -141.17 -20.6288 -186.69 -52.8912 -186.24C-85.7279 -185.783 -119.251 -158.871 -135.37 -122.493C-151.132 -86.9218 -136.967 -43.1846 -134.306 -2.49683C-132.249 28.9485 -131.894 60.1375 -121.544 88.8153C-111.207 117.456 -93.3666 138.762 -75.4619 160.55C-53.4726 187.309 -35.3947 232.682 -5 230.636Z" fill="#991B24"/>
<path d="M390 366.675C414.773 365.717 439.48 362.598 461.287 347.625C484.211 331.886 504.851 309.675 516.328 279.939C527.968 249.78 526.758 215.396 525.272 181.854C523.662 145.502 525.47 105.486 507.353 77.2894C489.122 48.9143 458.742 35.4659 429.966 33.5213C403.852 31.7557 381.18 52.2689 357.807 67.1803C338.394 79.5662 322.552 96.5522 305.181 113.134C282.586 134.703 250.265 145.566 240.419 179.239C230.406 213.481 241.05 253.028 254.921 285.02C268.26 315.783 290.917 338.169 315.869 353.251C338.876 367.16 364.537 367.66 390 366.675Z" fill="#DE424D"/>
</g>
<path fill-rule="evenodd" clip-rule="evenodd" d="M207.823 60.6451C210.43 59.3015 211.768 59.508 211.801 60.8516C211.834 62.6086 211.566 64.9512 211.399 66.6393C210.397 75.8037 208.792 83.2796 208.658 92.7193C212.971 81.2123 216.548 73.2884 221.195 63.4699C222.666 60.3348 223.636 60.9204 224.839 60.3348C229.553 58.164 229.72 59.5076 229.085 62.1947C226.812 71.9448 220.995 102.779 220.092 107.5C219.825 108.878 218.354 108.326 218.019 107.775C216.281 105.398 214.408 105.363 214.609 103.744C215.679 95.8896 219.49 76.0106 220.46 71.325C215.411 81.9356 210.196 95.2688 207.522 102.779C206.954 104.364 205.917 104.261 205.282 103.089C204.346 101.401 202.607 100.574 202.34 98.6451C201.404 92.4778 203.376 80.6954 203.644 73.2196C200.936 81.3499 196.323 97.1981 194.316 104.329C193.481 107.292 190.706 106.775 191.442 103.95C194.517 91.9263 201.103 70.7384 203.944 63.1245C204.613 61.2996 206.384 61.4031 207.823 60.6451ZM191.174 59.1639C190.271 58.9574 187.663 60.404 186.059 60.6456C185.557 60.7837 185.089 61.3 184.922 61.713C182.381 67.7418 180.108 73.4616 178.169 78.6285C175.241 79.1819 172.321 79.7792 169.41 80.4201C171.783 74.2191 174.157 68.0526 176.464 62.1605C177.6 59.1981 174.592 58.9224 173.421 61.8853C171.917 65.7095 169.075 72.9092 165.933 81.282C163.626 81.8676 161.118 82.5221 158.578 83.3147C156.706 83.8311 156.638 84.3474 157.441 85.5196C157.909 86.1395 158.778 86.0707 159.213 86.5533C160.316 87.7242 160.985 89.137 162.957 89.3435C161.152 94.1668 159.413 99.0936 157.875 103.813C156.872 106.811 159.714 107.431 160.784 104.261C162.522 99.197 164.361 94.0638 166.267 88.8608C167.838 88.5167 171.616 87.69 175.126 86.8628C172.351 94.7866 170.546 100.747 169.81 103.675C169.677 104.226 169.944 104.502 170.044 104.777C170.947 106.156 171.883 106.224 173.087 107.982C173.388 108.464 174.491 108.705 174.892 107.534C177.289 100.037 179.841 92.5934 182.548 85.2093C183.585 84.9335 185.457 84.4855 186.593 82.7632C188.599 79.6622 189.168 80.2829 189.703 79.3523C190.304 78.1468 189.869 77.0785 187.73 77.3196C187.73 77.3196 186.928 77.3889 185.39 77.5611C187.797 71.2562 189.937 65.9165 191.408 61.8164C191.909 60.404 191.976 59.3704 191.174 59.1639Z" fill="white"/>
<path fill-rule="evenodd" clip-rule="evenodd" d="M188.822 98.3149C189.17 97.8602 189.485 97.3909 189.77 96.9575C191.036 95.026 189.803 93.8907 188.499 95.0278C188.313 95.2041 188.12 95.3964 187.928 95.5962C187.714 94.907 187.502 94.2173 187.291 93.5271C187.889 92.7722 188.47 91.9974 188.967 91.2035C191.062 87.8548 186.962 85.9327 185.189 88.1034C184.254 89.2406 184.488 90.3772 184.755 91.3763C184.832 91.6764 184.953 92.1053 185.102 92.6257C184.452 93.3255 183.824 94.0461 183.217 94.7863C181.178 97.1986 181.745 100.304 183.886 100.988C185.177 101.4 186.395 100.799 187.45 99.84C187.501 99.9768 187.549 100.107 187.597 100.23C188.165 101.677 189.937 101.229 189.235 99.4724C189.122 99.1771 188.981 98.7797 188.822 98.3149ZM185.92 95.2791C186.093 95.8417 186.28 96.4327 186.466 96.9984C186.233 97.1986 185.996 97.4011 185.758 97.5432C184.929 98.0373 184.32 97.5085 185.39 96.0273C185.565 95.7715 185.744 95.5238 185.92 95.2791ZM186.589 91.0606C186.527 90.9003 186.492 90.7431 186.46 90.6183C185.86 88.3095 188.428 88.9262 187.129 90.4461C186.944 90.6614 186.777 90.8745 186.589 91.0606Z" fill="white"/>
<path d="M142.616 128.41C142.87 128.45 143.1 128.553 143.306 128.72C143.52 128.887 143.686 129.093 143.806 129.34C143.933 129.587 143.996 129.85 143.996 130.13C143.996 130.483 143.906 130.803 143.726 131.09C143.546 131.37 143.283 131.593 142.936 131.76C142.596 131.92 142.193 132 141.726 132H139.126V125.03H141.626C142.1 125.03 142.503 125.11 142.836 125.27C143.17 125.423 143.42 125.633 143.586 125.9C143.753 126.167 143.836 126.467 143.836 126.8C143.836 127.213 143.723 127.557 143.496 127.83C143.276 128.097 142.983 128.29 142.616 128.41ZM140.036 128.04H141.566C141.993 128.04 142.323 127.94 142.556 127.74C142.79 127.54 142.906 127.263 142.906 126.91C142.906 126.557 142.79 126.28 142.556 126.08C142.323 125.88 141.986 125.78 141.546 125.78H140.036V128.04ZM141.646 131.25C142.1 131.25 142.453 131.143 142.706 130.93C142.96 130.717 143.086 130.42 143.086 130.04C143.086 129.653 142.953 129.35 142.686 129.13C142.42 128.903 142.063 128.79 141.616 128.79H140.036V131.25H141.646ZM149.679 132L148.019 129.15H146.919V132H146.009V125.03H148.259C148.786 125.03 149.229 125.12 149.589 125.3C149.956 125.48 150.229 125.723 150.409 126.03C150.589 126.337 150.679 126.687 150.679 127.08C150.679 127.56 150.539 127.983 150.259 128.35C149.986 128.717 149.573 128.96 149.019 129.08L150.769 132H149.679ZM146.919 128.42H148.259C148.753 128.42 149.123 128.3 149.369 128.06C149.616 127.813 149.739 127.487 149.739 127.08C149.739 126.667 149.616 126.347 149.369 126.12C149.129 125.893 148.759 125.78 148.259 125.78H146.919V128.42ZM153.753 125.03V132H152.843V125.03H153.753ZM161.334 127.05C161.141 126.643 160.861 126.33 160.494 126.11C160.128 125.883 159.701 125.77 159.214 125.77C158.728 125.77 158.288 125.883 157.894 126.11C157.508 126.33 157.201 126.65 156.974 127.07C156.754 127.483 156.644 127.963 156.644 128.51C156.644 129.057 156.754 129.537 156.974 129.95C157.201 130.363 157.508 130.683 157.894 130.91C158.288 131.13 158.728 131.24 159.214 131.24C159.894 131.24 160.454 131.037 160.894 130.63C161.334 130.223 161.591 129.673 161.664 128.98H158.884V128.24H162.634V128.94C162.581 129.513 162.401 130.04 162.094 130.52C161.788 130.993 161.384 131.37 160.884 131.65C160.384 131.923 159.828 132.06 159.214 132.06C158.568 132.06 157.978 131.91 157.444 131.61C156.911 131.303 156.488 130.88 156.174 130.34C155.868 129.8 155.714 129.19 155.714 128.51C155.714 127.83 155.868 127.22 156.174 126.68C156.488 126.133 156.911 125.71 157.444 125.41C157.978 125.103 158.568 124.95 159.214 124.95C159.954 124.95 160.608 125.133 161.174 125.5C161.748 125.867 162.164 126.383 162.424 127.05H161.334ZM169.957 125.03V132H169.047V128.84H165.497V132H164.587V125.03H165.497V128.09H169.047V125.03H169.957ZM176.551 125.03V125.77H174.651V132H173.741V125.77H171.831V125.03H176.551ZM179.331 125.77V128.1H181.871V128.85H179.331V131.25H182.171V132H178.421V125.02H182.171V125.77H179.331ZM187.968 132L186.308 129.15H185.208V132H184.298V125.03H186.548C187.075 125.03 187.518 125.12 187.878 125.3C188.245 125.48 188.518 125.723 188.698 126.03C188.878 126.337 188.968 126.687 188.968 127.08C188.968 127.56 188.828 127.983 188.548 128.35C188.275 128.717 187.862 128.96 187.308 129.08L189.058 132H187.968ZM185.208 128.42H186.548C187.042 128.42 187.412 128.3 187.658 128.06C187.905 127.813 188.028 127.487 188.028 127.08C188.028 126.667 187.905 126.347 187.658 126.12C187.418 125.893 187.048 125.78 186.548 125.78H185.208V128.42ZM198.838 125.03V125.77H196.938V132H196.028V125.77H194.118V125.03H198.838ZM206.078 125.03V132H205.168V128.84H201.618V132H200.708V125.03H201.618V128.09H205.168V125.03H206.078ZM212.502 130.45H209.462L208.902 132H207.942L210.462 125.07H211.512L214.022 132H213.062L212.502 130.45ZM212.242 129.71L210.982 126.19L209.722 129.71H212.242ZM221.351 132H220.441L216.781 126.45V132H215.871V125.02H216.781L220.441 130.56V125.02H221.351V132ZM227.978 125.77V128.1H230.518V128.85H227.978V131.25H230.818V132H227.068V125.02H230.818V125.77H227.978ZM238.705 125.03L236.075 132H235.025L232.395 125.03H233.365L235.555 131.04L237.745 125.03H238.705ZM241.363 125.77V128.1H243.903V128.85H241.363V131.25H244.203V132H240.453V125.02H244.203V125.77H241.363ZM250 132L248.34 129.15H247.24V132H246.33V125.03H248.58C249.106 125.03 249.55 125.12 249.91 125.3C250.276 125.48 250.55 125.723 250.73 126.03C250.91 126.337 251 126.687 251 127.08C251 127.56 250.86 127.983 250.58 128.35C250.306 128.717 249.893 128.96 249.34 129.08L251.09 132H250ZM247.24 128.42H248.58C249.073 128.42 249.443 128.3 249.69 128.06C249.936 127.813 250.06 127.487 250.06 127.08C250.06 126.667 249.936 126.347 249.69 126.12C249.45 125.893 249.08 125.78 248.58 125.78H247.24V128.42Z" fill="white"/>
<defs>
<clipPath id="clip0_77_780">
<rect width="390" height="174" fill="white"/>
</clipPath>
</defs>
</svg>
