<svg width="31" height="32" viewBox="0 0 31 32" fill="none" xmlns="http://www.w3.org/2000/svg">
<circle cx="15.875" cy="16" r="14.625" stroke="#C7232F"/>
<path d="M19.6562 18.5713C19.1773 18.5713 18.7488 18.7604 18.421 19.0566L13.9277 16.4412C13.9592 16.2963 13.9844 16.1513 13.9844 16.0001C13.9844 15.8488 13.9592 15.7039 13.9277 15.5589L18.3706 12.9688C18.7109 13.2839 19.1584 13.4792 19.6562 13.4792C20.7024 13.4792 21.5469 12.6348 21.5469 11.5886C21.5469 10.5425 20.7024 9.698 19.6562 9.698C18.6101 9.698 17.7656 10.5425 17.7656 11.5886C17.7656 11.7399 17.7908 11.8848 17.8223 12.0298L13.3794 14.6199C13.0391 14.3048 12.5916 14.1095 12.0937 14.1095C11.0476 14.1095 10.2031 14.9539 10.2031 16.0001C10.2031 17.0462 11.0476 17.8907 12.0937 17.8907C12.5916 17.8907 13.0391 17.6953 13.3794 17.3802L17.8665 20.0019C17.8349 20.1342 17.816 20.2729 17.816 20.4115C17.816 21.4262 18.6416 22.2517 19.6562 22.2517C20.6709 22.2517 21.4965 21.4262 21.4965 20.4115C21.4965 19.3969 20.6709 18.5713 19.6562 18.5713Z" fill="#C7232F"/>
</svg>
