<svg width="24" height="24" viewBox="0 0 24 24" fill="rgba(40, 44, 63, 1)"><g fill="none" fill-rule="evenodd"><g fill="rgba(40, 44, 63, 1)" fill-rule="nonzero"><g><path d="M16.458 2.75c3.193 0 5.792 2.557 5.792 5.702 0 .665-.108 1.361-.32 2.076l-.081.254.05.095c.164.33.273.684.322 1.05l.022.222.007.224c0 1.575-.934 3.133-2.295 4.519-1.215 1.238-2.639 2.162-3.565 2.162-.288 0-.612-.087-.966-.252l-.044-.021-.123.087c-1.057.725-2.048 1.226-2.873 1.352l-.202.023-.182.007c-.746 0-1.716-.412-2.9-1.216-1.065-.723-2.224-1.721-3.265-2.813-2.351-2.465-4.085-5.227-4.085-7.769 0-3.145 2.6-5.702 5.792-5.702 1.106 0 2.182.308 3.11.89.344.216.662.466.95.745l.211.215.187.211.187-.211c.205-.22.427-.425.665-.61l.243-.181.253-.168c.928-.583 2.004-.891 3.11-.891zm0 1.653c-1.591 0-3.01.873-3.707 2.279-.14.283-.432.463-.751.463s-.61-.18-.75-.463c-.698-1.406-2.117-2.28-3.708-2.28-2.272 0-4.12 1.818-4.12 4.05 0 1.757 1.354 4.249 3.63 6.635 1.914 2.008 4.133 3.51 4.948 3.51.327 0 .985-.26 1.792-.755l.094-.06c-.28-.233-.556-.483-.815-.74l-.254-.259c-1.317-1.38-2.287-2.937-2.287-4.41 0-1.892 1.563-3.429 3.481-3.429.834 0 1.622.287 2.242.801l.137.122.138-.122c.563-.467 1.265-.747 2.015-.793l.226-.008c.575 0 1.129.14 1.624.398l.093.052.033-.186c.026-.173.044-.343.053-.51l.006-.246c0-2.232-1.848-4.05-4.12-4.05zm2.311 6.194c-.7 0-1.322.383-1.628 1-.14.284-.432.463-.75.463-.32 0-.61-.179-.751-.462-.306-.618-.93-1-1.629-1-.998 0-1.809.797-1.809 1.775 0 .834.682 2.071 1.831 3.276.985 1.033 2.07 1.752 2.357 1.752.314 0 1.404-.68 2.366-1.66 1.162-1.184 1.822-2.42 1.822-3.368 0-.978-.81-1.776-1.809-1.776z" transform="translate(-12 -622) translate(12 622)"></path></g></g></g></svg>