<svg width="56" height="56" viewBox="0 0 52 52"><g fill="none" fill-rule="evenodd"><g fill="#ffffff" fill-rule="nonzero"><g><g><g><path fill-opacity="0.203" stroke="#ffffff" stroke-width="1.31" d="M22.1-.395c6.212 0 11.836 2.518 15.906 6.589 4.071 4.07 6.589 9.694 6.589 15.906s-2.518 11.836-6.589 15.906c-4.07 4.071-9.694 6.589-15.906 6.589s-11.836-2.518-15.906-6.589C2.123 33.936-.395 28.312-.395 22.1S2.123 10.264 6.194 6.194C10.264 2.123 15.888-.395 22.1-.395z" transform="translate(-154 -416) translate(0 172) translate(154 244) translate(3.9 3.9)"></path><path d="M29.648 23.258l-10.92 6.825c-.22.138-.472.207-.723.207-.228 0-.456-.057-.662-.171-.434-.24-.703-.697-.703-1.194v-13.65c0-.497.27-.953.703-1.194.434-.242.965-.227 1.385.036l10.92 6.825c.4.25.642.688.642 1.158s-.243.908-.642 1.158z" transform="translate(-154 -416) translate(0 172) translate(154 244) translate(3.9 3.9)"></path></g></g></g></g></g></svg>