<svg xmlns="http://www.w3.org/2000/svg" width="24" height="24" viewBox="0 0 24 24"><g fill="none" fill-rule="evenodd"><g fill="#3E4152"><g><path d="M21.435 12.922l-1.868.313c-.296.05-.534.268-.607.556-.17.656-.43 1.278-.77 1.85-.151.258-.137.582.035.827l1.098 1.547-1.307 1.308-1.542-1.098c-.242-.175-.567-.187-.828-.035-.57.34-1.193.598-1.85.768-.293.074-.512.314-.557.609l-.316 1.867h-1.846l-.311-1.867c-.05-.297-.27-.535-.557-.608-.626-.162-1.235-.412-1.812-.742-.254-.144-.598-.124-.82.039L6.02 19.363l-1.307-1.308 1.094-1.534c.173-.245.186-.57.033-.83-.35-.585-.611-1.207-.778-1.849-.078-.286-.315-.504-.606-.555l-1.882-.32v-1.846l1.855-.31c.299-.052.539-.271.612-.563.167-.662.42-1.287.755-1.854.15-.258.136-.58-.04-.822L4.65 6.016l1.307-1.308 1.535 1.095c.246.171.572.186.83.032.585-.35 1.205-.61 1.848-.777.287-.079.505-.316.556-.606l.32-1.882h1.846l.31 1.853c.05.3.272.54.563.614.668.168 1.306.428 1.896.777.257.15.58.138.825-.035l1.534-1.103 1.308 1.308-1.098 1.543c-.174.242-.188.565-.034.827.34.572.598 1.194.768 1.85.073.292.312.511.607.556l1.868.316-.004 1.846zm.278-3.337l-1.424-.24c-.147-.458-.331-.902-.548-1.327l.839-1.174c.424-.596.356-1.4-.161-1.91l-1.344-1.345c-.502-.502-1.34-.568-1.906-.16l-1.18.84c-.45-.232-.913-.423-1.38-.568l-.236-1.405c-.12-.718-.736-1.24-1.464-1.24h-1.9c-.727 0-1.343.521-1.463 1.24L9.3 3.739c-.452.146-.896.333-1.322.556l-1.164-.838c-.572-.412-1.42-.342-1.912.16L3.554 4.96c-.515.516-.582 1.319-.161 1.912l.849 1.193c-.215.42-.396.867-.54 1.329l-1.406.236c-.718.121-1.24.736-1.24 1.465v1.898c0 .729.522 1.345 1.239 1.466l1.444.245c.147.454.334.896.556 1.322l-.834 1.16c-.424.596-.356 1.4.16 1.912l1.344 1.344c.502.502 1.336.57 1.907.16l1.192-.849c.4.204.83.38 1.28.526l.237 1.424c.12.72.737 1.24 1.465 1.24h1.903c.728 0 1.344-.52 1.465-1.24l.242-1.424c.459-.148.904-.331 1.325-.547l1.173.838c.567.407 1.407.345 1.912-.16l1.344-1.343c.515-.515.583-1.32.16-1.913l-.84-1.178c.226-.442.41-.887.55-1.325l1.425-.237c.717-.12 1.238-.737 1.238-1.466v-1.896c.01-.729-.507-1.345-1.23-1.466zM12 15.24c-1.787 0-3.241-1.454-3.241-3.24.002-1.786 1.456-3.24 3.24-3.242 1.788 0 3.242 1.455 3.242 3.242S13.787 15.24 12 15.24zm-.001-7.982c-2.611.003-4.737 2.13-4.74 4.741 0 2.614 2.127 4.742 4.74 4.742 2.615 0 4.742-2.127 4.742-4.742 0-2.614-2.127-4.74-4.742-4.74z" transform="translate(-280 -16) translate(280 16)"></path></g></g></g></svg>