<svg width="24" height="24" viewBox="0 0 24 24" fill="rgba(40, 44, 63, 1)"><g fill="none" fill-rule="evenodd"><g fill="rgba(40, 44, 63, 1)" fill-rule="nonzero"><g><g><g><path d="M15 0H3.002C1.344 0 0 1.344 0 3.001V17.25c0 .644.759.988 1.244.564l5.506-4.818 5.506 4.818c.485.424 1.244.08 1.244-.564v-8.25h3.75c.414 0 .75-.335.75-.75V3C18 1.344 16.657 0 15 0zm-3 15.596l-4.756-4.161c-.283-.248-.705-.248-.988 0L1.5 15.595V3.002c0-.829.672-1.501 1.501-1.501h9.4l-.031.057-.01.018-.059.113-.013.027-.047.104-.007.017c-.017.04-.032.08-.047.12l-.01.03c-.014.036-.027.073-.038.11l-.005.015c-.013.042-.025.083-.036.125l-.008.031-.027.12-.003.01-.023.13-.005.033-.016.128v.006c-.005.045-.008.09-.01.135l-.003.033L12 3v12.596zm4.5-8.097h-3V3c0-.828.671-1.5 1.5-1.5s1.5.672 1.5 1.5v4.5z" transform="translate(-324 -622) translate(12 622) translate(312) translate(3 3)"></path></g></g></g></g></g></svg>