<svg width="16" height="16" viewBox="0 0 20 20" fill="#FF3F6C"><g fill="none" fill-rule="evenodd"><g fill="#FF3F6C"><g><g><path d="M3.364 17.242L4.389 6.107H6.07V7.57c0 .337.273.61.61.61.336 0 .609-.273.609-.61V6.107h5.422V7.57c0 .337.273.61.61.61.336 0 .609-.273.609-.61V6.107h1.681l1.025 11.135H3.364zM10 2.758c1.296 0 2.38.914 2.647 2.13H7.353c.266-1.216 1.351-2.13 2.647-2.13zm6.771 2.68c-.03-.311-.292-.55-.606-.55h-2.283C13.6 2.996 11.969 1.54 10 1.54c-1.97 0-3.6 1.457-3.882 3.35H3.835c-.314 0-.576.238-.606.55L2.087 17.793c-.016.171.04.341.155.468.116.127.28.2.451.2h14.614c.171 0 .335-.073.45-.2.116-.127.172-.297.156-.468L16.77 5.44z" transform="translate(-21 -708) translate(15 702) translate(6 6)"></path></g></g></g></g></svg>